<svg width="21" height="21" viewBox="0 0 21 21" fill="none" xmlns="http://www.w3.org/2000/svg">
<path d="M15.9169 2.70068C15.9169 2.16142 15.7026 1.64426 15.3213 1.26295C14.94 0.881637 14.4229 0.667419 13.8836 0.667419H7.78382C7.24457 0.667419 6.7274 0.881637 6.34609 1.26295C5.96478 1.64426 5.75057 2.16142 5.75057 2.70068V4.73394H1.68405C1.41442 4.73394 1.15584 4.84104 0.965183 5.0317C0.774528 5.22235 0.66742 5.48094 0.66742 5.75056C0.66742 6.02019 0.774528 6.27877 0.965183 6.46943C1.15584 6.66008 1.41442 6.76719 1.68405 6.76719H2.77083L3.65224 19.1111C3.68876 19.6241 3.9183 20.1042 4.29464 20.4547C4.67097 20.8051 5.16615 21 5.68042 21H15.988C16.5023 21 16.9975 20.8051 17.3738 20.4547C17.7501 20.1042 17.9797 19.6241 18.0162 19.1111L18.8956 6.76719H19.9834C20.253 6.76719 20.5116 6.66008 20.7022 6.46943C20.8929 6.27877 21 6.02019 21 5.75056C21 5.48094 20.8929 5.22235 20.7022 5.0317C20.5116 4.84104 20.253 4.73394 19.9834 4.73394H15.9169V2.70068ZM13.8836 4.73394H7.78382V2.70068H13.8836V4.73394ZM16.8583 6.76719L15.987 18.9667H5.6794L4.80815 6.76719H16.8583ZM12.867 8.80045C12.5973 8.80045 12.3388 8.90756 12.1481 9.09822C11.9574 9.28887 11.8503 9.54745 11.8503 9.81708V15.9169C11.8503 16.1865 11.9574 16.4451 12.1481 16.6357C12.3388 16.8264 12.5973 16.9335 12.867 16.9335C13.1366 16.9335 13.3952 16.8264 13.5858 16.6357C13.7765 16.4451 13.8836 16.1865 13.8836 15.9169V9.81708C13.8836 9.54745 13.7765 9.28887 13.5858 9.09822C13.3952 8.90756 13.1366 8.80045 12.867 8.80045ZM8.80045 8.80045C8.53083 8.80045 8.27224 8.90756 8.08159 9.09822C7.89093 9.28887 7.78382 9.54745 7.78382 9.81708V15.9169C7.78382 16.1865 7.89093 16.4451 8.08159 16.6357C8.27224 16.8264 8.53083 16.9335 8.80045 16.9335C9.07008 16.9335 9.32866 16.8264 9.51932 16.6357C9.70997 16.4451 9.81708 16.1865 9.81708 15.9169V9.81708C9.81708 9.54745 9.70997 9.28887 9.51932 9.09822C9.32866 8.90756 9.07008 8.80045 8.80045 8.80045Z" fill="#0D0D0D"/>
</svg>
