<svg width="45" height="45" viewBox="0 0 45 45" fill="none" xmlns="http://www.w3.org/2000/svg">
<mask id="mask0_23_107" style="mask-type:luminance" maskUnits="userSpaceOnUse" x="0" y="0" width="45" height="45">
<path d="M44.4767 18.4091H23.0233V27.1023H35.3721C34.2209 32.625 29.407 35.7955 23.0233 35.7955C15.4884 35.7955 9.4186 29.8636 9.4186 22.5C9.4186 15.1364 15.4884 9.20455 23.0233 9.20455C26.2674 9.20455 29.1977 10.3295 31.5 12.1705L38.1977 5.625C34.1163 2.14773 28.8837 0 23.0233 0C10.2558 0 0 10.0227 0 22.5C0 34.9773 10.2558 45 23.0233 45C34.5349 45 45 36.8182 45 22.5C45 21.1705 44.7907 19.7386 44.4767 18.4091Z" fill="white"/>
</mask>
<g mask="url(#mask0_23_107)">
<path d="M-2.09326 35.7955V9.20456L15.6974 22.5L-2.09326 35.7955Z" fill="#FBBC05"/>
</g>
<mask id="mask1_23_107" style="mask-type:luminance" maskUnits="userSpaceOnUse" x="0" y="0" width="45" height="45">
<path d="M44.4767 18.4091H23.0233V27.1023H35.3721C34.2209 32.625 29.407 35.7955 23.0233 35.7955C15.4884 35.7955 9.4186 29.8636 9.4186 22.5C9.4186 15.1364 15.4884 9.20455 23.0233 9.20455C26.2674 9.20455 29.1977 10.3295 31.5 12.1705L38.1977 5.625C34.1163 2.14773 28.8837 0 23.0233 0C10.2558 0 0 10.0227 0 22.5C0 34.9773 10.2558 45 23.0233 45C34.5349 45 45 36.8182 45 22.5C45 21.1705 44.7907 19.7386 44.4767 18.4091Z" fill="white"/>
</mask>
<g mask="url(#mask1_23_107)">
<path d="M-2.09326 9.20456L15.6974 22.5L23.023 16.2614L48.1393 12.2727V-2.04544H-2.09326V9.20456Z" fill="#EA4335"/>
</g>
<mask id="mask2_23_107" style="mask-type:luminance" maskUnits="userSpaceOnUse" x="0" y="0" width="45" height="45">
<path d="M44.4767 18.4091H23.0233V27.1023H35.3721C34.2209 32.625 29.407 35.7955 23.0233 35.7955C15.4884 35.7955 9.4186 29.8636 9.4186 22.5C9.4186 15.1364 15.4884 9.20455 23.0233 9.20455C26.2674 9.20455 29.1977 10.3295 31.5 12.1705L38.1977 5.625C34.1163 2.14773 28.8837 0 23.0233 0C10.2558 0 0 10.0227 0 22.5C0 34.9773 10.2558 45 23.0233 45C34.5349 45 45 36.8182 45 22.5C45 21.1705 44.7907 19.7386 44.4767 18.4091Z" fill="white"/>
</mask>
<g mask="url(#mask2_23_107)">
<path d="M-2.09326 35.7955L29.3021 12.2727L37.5695 13.2955L48.1393 -2.04544V47.0455H-2.09326V35.7955Z" fill="#34A853"/>
</g>
<mask id="mask3_23_107" style="mask-type:luminance" maskUnits="userSpaceOnUse" x="0" y="0" width="45" height="45">
<path d="M44.4767 18.4091H23.0233V27.1023H35.3721C34.2209 32.625 29.407 35.7955 23.0233 35.7955C15.4884 35.7955 9.4186 29.8636 9.4186 22.5C9.4186 15.1364 15.4884 9.20455 23.0233 9.20455C26.2674 9.20455 29.1977 10.3295 31.5 12.1705L38.1977 5.625C34.1163 2.14773 28.8837 0 23.0233 0C10.2558 0 0 10.0227 0 22.5C0 34.9773 10.2558 45 23.0233 45C34.5349 45 45 36.8182 45 22.5C45 21.1705 44.7907 19.7386 44.4767 18.4091Z" fill="white"/>
</mask>
<g mask="url(#mask3_23_107)">
<path d="M48.1396 47.0455L15.6978 22.5L11.5117 19.4318L48.1396 9.20456V47.0455Z" fill="#4285F4"/>
</g>
</svg>
