<svg width="16" height="20" viewBox="0 0 16 20" fill="none" xmlns="http://www.w3.org/2000/svg">
<path d="M6.40393 2.61546C5.13011 2.61546 3.90846 3.19933 3.00774 4.23863C2.10701 5.27793 1.60098 6.68753 1.60098 8.15732C1.60098 9.62712 2.10701 11.0367 3.00774 12.076C3.90846 13.1153 5.13011 13.6992 6.40393 13.6992C7.67776 13.6992 8.89941 13.1153 9.80013 12.076C10.7009 11.0367 11.2069 9.62712 11.2069 8.15732C11.2069 6.68753 10.7009 5.27793 9.80013 4.23863C8.89941 3.19933 7.67776 2.61546 6.40393 2.61546ZM3.95573e-08 8.15732C0.000145951 6.9814 0.243524 5.82249 0.709908 4.77692C1.17629 3.73135 1.85221 2.82931 2.68149 2.14577C3.51077 1.46223 4.46946 1.01694 5.47789 0.846892C6.48632 0.676846 7.51535 0.786961 8.47948 1.16808C9.44361 1.54921 10.315 2.19033 11.0212 3.03818C11.7274 3.88602 12.248 4.9161 12.5398 6.0428C12.8316 7.16951 12.8861 8.36029 12.6988 9.5162C12.5115 10.6721 12.0879 11.7597 11.463 12.6887L15.7753 17.6644C15.9211 17.8386 16.0018 18.0719 16 18.3141C15.9981 18.5563 15.914 18.7879 15.7655 18.9592C15.6171 19.1304 15.4163 19.2276 15.2065 19.2297C14.9966 19.2318 14.7944 19.1387 14.6434 18.9704L10.3311 13.9948C9.38453 14.8428 8.25069 15.3672 7.05855 15.5086C5.86641 15.6499 4.66382 15.4025 3.58752 14.7943C2.51123 14.1862 1.60442 13.2418 0.970216 12.0685C0.336014 10.8952 -0.000133138 9.54011 3.95573e-08 8.15732Z" fill="#535353" fill-opacity="0.59"/>
</svg>
